<svg xmlns="http://www.w3.org/2000/svg" width="80" height="80" viewBox="0 0 80 80">
    <g fill="none" fill-rule="evenodd">
        <path fill="#4DB9FF" d="M0 40C0 17.909 17.909 0 40 0s40 17.909 40 40-17.909 40-40 40S0 62.091 0 40z"/>
        <path fill="#282828" d="M39.69 34.65l.065 1.082-1.093-.133c-3.979-.507-7.454-2.229-10.405-5.12l-1.443-1.434-.371 1.06c-.787 2.36-.284 4.854 1.355 6.531.874.927.678 1.06-.83.508-.525-.176-.984-.309-1.028-.243-.153.155.372 2.163.787 2.957.568 1.104 1.727 2.185 2.994 2.825l1.072.508-1.268.022c-1.224 0-1.268.022-1.137.485.437 1.435 2.164 2.957 4.088 3.62l1.355.463-1.18.706a12.307 12.307 0 0 1-5.859 1.633c-.983.022-1.792.11-1.792.176 0 .221 2.667 1.457 4.219 1.942 4.656 1.435 10.186.817 14.34-1.633 2.95-1.743 5.9-5.208 7.278-8.562.743-1.787 1.486-5.053 1.486-6.62 0-1.015.066-1.148 1.29-2.361.721-.707 1.399-1.479 1.53-1.7.219-.419.197-.419-.918-.044-1.858.662-2.12.574-1.202-.42.678-.705 1.486-1.985 1.486-2.36 0-.067-.328.044-.7.242-.393.221-1.267.552-1.923.75l-1.18.376-1.071-.728c-.59-.398-1.421-.839-1.858-.971-1.115-.31-2.82-.265-3.825.088-2.733.993-4.46 3.553-4.263 6.355z"/>
    </g>
</svg>
